#N canvas 12 31 1256 732 10;
#X floatatom 74 125 10 1e-08 2000 2 Fundamental - p-#0, f 10;
#X floatatom 146 125 10 1e-08 2000 2 Formant - d-#0, f 10;
#X obj 73 594 outlet~;
#N canvas 648 33 304 753 envelope 0;
#X obj 161 94 route 0 1 2 3 4;
#X msg 355 301 \; v_\$1 const 1;
#X msg 19 104 \; v_\$1 resize 1027;
#N canvas 844 28 412 1014 triangle 0;
#X obj 110 429 f;
#X obj 143 428 + 1;
#X msg 153 394 0;
#X obj 54 460 / 512;
#X obj 109 394 until;
#X obj 92 512 - 2;
#X obj 92 536 * -1;
#X obj 53 486 moses 1;
#X obj 80 397 / 2;
#X obj 109 346 t f f b;
#X obj 127 466 t f f;
#X obj 82 569 tabwrite;
#X obj 107 244 inlet;
#X msg 203 292 symbol v_\$1;
#X msg 280 515 set v_\$1;
#X obj 110 317 expr size("$s2");
#X obj 280 231 loadbang;
#X obj 280 262 f \$0;
#X connect 0 0 1 0;
#X connect 0 0 10 0;
#X connect 1 0 0 1;
#X connect 2 0 0 1;
#X connect 3 0 7 0;
#X connect 4 0 0 0;
#X connect 5 0 6 0;
#X connect 6 0 11 0;
#X connect 7 0 11 0;
#X connect 7 1 5 0;
#X connect 8 0 3 1;
#X connect 9 0 4 0;
#X connect 9 1 8 0;
#X connect 9 2 2 0;
#X connect 10 0 3 0;
#X connect 10 1 11 1;
#X connect 12 0 15 0;
#X connect 13 0 15 1;
#X connect 14 0 11 0;
#X connect 15 0 9 0;
#X connect 16 0 17 0;
#X connect 17 0 13 0;
#X connect 17 0 14 0;
#X restore 194 289 pd triangle;
#N canvas 844 28 412 1014 flat-top 0;
#X obj 58 277 t f f;
#X obj 58 309 / 1;
#X text 100 310 <--table length;
#X obj 58 334 - 1;
#X obj 58 226 until;
#X obj 58 252 f;
#X obj 96 252 + 1;
#X obj 58 477 exp;
#X obj 58 447 * -1;
#X obj 58 396 abs;
#X obj 137 271 * 0.5;
#X text 16 53 -Flat-top Gaussian Window-;
#X obj 58 155 t f f;
#X text 103 369 <--variable controls the bend. Default is 2;
#X text 105 422 <--variable controls the flatness of the top. Default
is 2;
#X msg 23 199 0;
#X obj 58 370 * 1.3;
#X obj 58 198 + 3;
#X obj 58 421 pow 7;
#X obj 59 126 f 1027;
#X obj 58 86 inlet;
#X msg 128 498 set v_\$1;
#X obj 58 532 tabwrite;
#X obj 128 475 f \$0;
#X obj 128 452 loadbang;
#X connect 0 0 1 0;
#X connect 0 1 22 1;
#X connect 1 0 3 0;
#X connect 3 0 16 0;
#X connect 4 0 5 0;
#X connect 5 0 6 0;
#X connect 5 0 0 0;
#X connect 6 0 5 1;
#X connect 7 0 22 0;
#X connect 8 0 7 0;
#X connect 9 0 18 0;
#X connect 10 0 1 1;
#X connect 12 0 17 0;
#X connect 12 1 10 0;
#X connect 15 0 5 0;
#X connect 16 0 9 0;
#X connect 17 0 4 0;
#X connect 18 0 8 0;
#X connect 19 0 12 0;
#X connect 20 0 19 0;
#X connect 20 0 15 0;
#X connect 21 0 22 0;
#X connect 23 0 21 0;
#X connect 24 0 23 0;
#X restore 116 289 pd flat-top;
#N canvas 648 33 618 753 expodec 0;
#X obj 98 42 inlet;
#X msg 24 448 set v_\$1;
#X obj 98 305 f;
#X obj 86 256 until;
#X msg 98 190 1027;
#X obj 125 306 + 1;
#X obj 98 331 t f f;
#X obj 88 484 tabwrite;
#X obj 100 367 expr pow(1 - $f1 / $f2 \, $f3);
#X floatatom 294 286 5 0 0 0 - - -, f 5;
#X obj 98 215 t f b f b;
#X obj 265 321 f 2;
#X obj 264 42 inlet;
#X obj 264 127 t b f;
#X obj 264 98 + 1;
#X obj 264 72 / 8;
#X obj 24 428 f \$0;
#X obj 24 408 loadbang;
#X obj 157 90 r \$0-envelope;
#X obj 155 152 spigot;
#X msg 127 256 0, f 1;
#X obj 158 118 == 3;
#X connect 0 0 4 0;
#X connect 1 0 7 0;
#X connect 2 0 5 0;
#X connect 2 0 6 0;
#X connect 3 0 2 0;
#X connect 4 0 10 0;
#X connect 5 0 2 1;
#X connect 6 0 8 0;
#X connect 6 1 7 1;
#X connect 8 0 7 0;
#X connect 9 0 11 1;
#X connect 10 0 3 0;
#X connect 10 1 20 0;
#X connect 10 2 8 1;
#X connect 10 3 11 0;
#X connect 11 0 8 2;
#X connect 12 0 15 0;
#X connect 13 0 19 0;
#X connect 13 1 9 0;
#X connect 14 0 13 0;
#X connect 15 0 14 0;
#X connect 16 0 1 0;
#X connect 17 0 16 0;
#X connect 18 0 21 0;
#X connect 19 0 4 0;
#X connect 20 0 2 1;
#X connect 21 0 19 1;
#X restore 272 289 pd expodec;
#N canvas 968 33 298 753 gauss 0;
#X obj 155 289 -;
#X floatatom 155 267 8 0 0 0 - - -, f 8;
#X obj 366 176 pow 2;
#X obj 366 198 * 2;
#X obj 155 376 /;
#X obj 155 399 * -1;
#X obj 155 545 *;
#X obj 155 336 *;
#X obj 155 309 t f f;
#X obj 50 24 inlet;
#X text 200 516 a;
#X obj 155 422 exp;
#X text 181 422 e^;
#X text 398 153 c;
#X text 409 176 2c^2;
#X text 260 270 b;
#X text 207 266 x;
#X text 190 307 (x-b)^2;
#X obj 170 517 f \$1;
#X obj 230 270 f \$2;
#X obj 375 126 loadbang;
#X obj 170 447 inlet a;
#X obj 366 155 f \$3;
#X obj 230 205 inlet b;
#X obj 367 62 inlet c;
#X obj 178 469 loadbang;
#X obj 239 225 loadbang;
#X text 221 446 ultimate height;
#X obj 332 416 cnv 15 220 150 empty empty empty 20 12 0 14 #e0e0e0
#404040 0;
#X text 379 525 a*e^;
#X text 423 508 (x-b)^2;
#X text 430 525 2c^2;
#X text 411 510 ___________;
#X text 401 512 -;
#X text 337 424 Gaussian function;
#X text 280 203 offset;
#X text 337 451 Arguments: <a-height> <b-x-offset> \; <c-base width>
;
#X text 367 44 width;
#X obj 153 179 until;
#X obj 95 607 tabwrite;
#X obj 132 209 f;
#X obj 163 209 + 1;
#X msg 190 178 0, f 1;
#X obj 50 84 t f b f;
#X obj 114 236 t f f;
#X obj 153 145 expr size("$s1");
#X msg 83 548 set v_\$0;
#X msg 154 120 symbol v_\$1;
#X obj 179 492 f 1;
#X obj 246 246 f 513;
#X obj 50 61 f \$0;
#X obj 368 228 t b f;
#X obj 250 31 r \$0-envelope;
#X obj 248 93 spigot;
#X obj 251 59 == 0;
#X obj 367 96 expr ((100 - $f1) * 4) + 40;
#X connect 0 0 8 0;
#X connect 1 0 0 0;
#X connect 2 0 3 0;
#X connect 3 0 51 0;
#X connect 4 0 5 0;
#X connect 5 0 11 0;
#X connect 6 0 39 0;
#X connect 7 0 4 0;
#X connect 8 0 7 0;
#X connect 8 1 7 1;
#X connect 9 0 50 0;
#X connect 11 0 6 0;
#X connect 18 0 6 1;
#X connect 19 0 0 1;
#X connect 20 0 22 0;
#X connect 21 0 18 0;
#X connect 22 0 2 0;
#X connect 23 0 19 0;
#X connect 24 0 55 0;
#X connect 25 0 48 0;
#X connect 26 0 49 0;
#X connect 38 0 40 0;
#X connect 40 0 41 0;
#X connect 40 0 44 0;
#X connect 41 0 40 1;
#X connect 42 0 40 1;
#X connect 43 0 47 0;
#X connect 43 1 42 0;
#X connect 43 2 46 0;
#X connect 44 0 1 0;
#X connect 44 1 39 1;
#X connect 45 0 38 0;
#X connect 46 0 39 0;
#X connect 47 0 45 0;
#X connect 48 0 18 0;
#X connect 49 0 19 0;
#X connect 50 0 43 0;
#X connect 51 0 53 0;
#X connect 51 1 4 1;
#X connect 52 0 54 0;
#X connect 53 0 50 0;
#X connect 54 0 53 1;
#X connect 55 0 22 0;
#X restore 56 289 pd gauss;
#X obj 311 176 route 0 1;
#X msg 392 130 1, f 1;
#X msg 367 130 0, f 1;
#X obj 314 154 list prepend;
#X obj 19 54 loadbang;
#X obj 19 79 f \$0;
#X obj 355 280 f \$0;
#X obj 314 89 r \$0-slope-factor;
#X obj 161 58 r \$0-envelope;
#X obj 254 28 loadbang;
#X msg 254 68 0;
#X obj 254 48 del 5;
#X connect 0 0 9 0;
#X connect 0 0 6 0;
#X connect 0 1 4 0;
#X connect 0 2 3 0;
#X connect 0 3 5 0;
#X connect 0 3 8 0;
#X connect 0 4 13 0;
#X connect 7 0 6 3;
#X connect 7 1 5 1;
#X connect 8 0 10 1;
#X connect 9 0 10 1;
#X connect 10 0 7 0;
#X connect 11 0 12 0;
#X connect 12 0 2 0;
#X connect 13 0 1 0;
#X connect 14 0 10 0;
#X connect 15 0 0 0;
#X connect 16 0 18 0;
#X connect 17 0 0 0;
#X connect 18 0 17 0;
#X restore 74 446 pd envelope;
#X obj 328 447 table v_\$0;
#X obj 328 382 table w_\$0;
#X text 73 543 Table reading;
#N canvas 719 34 340 840 waveform 0;
#N canvas 861 34 269 817 noise 0;
#X obj 177 39 inlet;
#X obj 178 195 until 1027;
#X obj 300 219 f;
#X obj 335 219 + 1;
#X msg 177 66 1027;
#X msg 315 133 0;
#X obj 178 220 random 65536;
#X obj 178 295 tabwrite;
#X msg 108 260 set w_\$1;
#X obj 178 245 / 65536;
#X obj 178 270 - 0.5;
#X obj 178 92 t f b b;
#X msg 198 152 \; w_\$1 resize 1027;
#X obj 198 132 f \$0;
#X obj 108 214 loadbang;
#X obj 108 237 f \$0;
#X connect 0 0 4 0;
#X connect 1 0 2 0;
#X connect 1 0 6 0;
#X connect 2 0 3 0;
#X connect 2 0 7 1;
#X connect 3 0 2 1;
#X connect 4 0 11 0;
#X connect 5 0 2 1;
#X connect 6 0 9 0;
#X connect 8 0 7 0;
#X connect 9 0 10 0;
#X connect 10 0 7 0;
#X connect 11 0 1 0;
#X connect 11 1 13 0;
#X connect 11 2 5 0;
#X connect 13 0 12 0;
#X connect 14 0 15 0;
#X connect 15 0 8 0;
#X restore 113 172 pd noise;
#N canvas 719 34 689 817 Triangle 0;
#X obj 84 99 inlet;
#X msg 172 193 \; w_\$1 sinesum 1024 1 0 -0.111 0 0.04 0 -0.02 0 0.012
0 -0.008 0 0.006;
#X obj 84 125 f \$0;
#X msg 45 193 \; w_\$1 normalize 0.99;
#X obj 84 151 t f f;
#X connect 0 0 2 0;
#X connect 2 0 4 0;
#X connect 4 0 3 0;
#X connect 4 1 1 0;
#X restore 96 194 pd Triangle;
#N canvas 719 34 689 817 Sawtooth 0;
#X obj 84 99 inlet;
#X msg 163 226 \; w_\$1 sinesum 1024 1 0.5 0.333 0.25 0.2 0.167 0.143
0.125 0.11 0.1 0.0909 0.0833 0.0769 0.0714 0.0667 0.0625;
#X obj 84 138 f \$0;
#X msg 33 226 \; w_\$1 normalize 0.99;
#X obj 84 177 t f f;
#X connect 0 0 2 0;
#X connect 2 0 4 0;
#X connect 4 0 3 0;
#X connect 4 1 1 0;
#X restore 80 217 pd Sawtooth;
#N canvas 719 34 689 817 Band-limited 0;
#X obj 82 99 inlet;
#X obj 111 164 * -1;
#X msg 83 221 \; w_\$3 cosinesum 1024 \$1 \$2 \$1 \$2 \$1 \$2 \$1 \$2
\$1 \$2 \$1 \$2 \$1 \$2 \$1 \$2 \$1 \$2 \$1 \$2 \$1 \$2 \$1 \$2 \$1
\$2 \$1 \$2 \$1 \$2 \$1 \$2 \$1 \$2 \$1 \$2 \$1 \$2 \$1 \$2 \$1 \$2
\$1 \$2 \$1 \$2 \$1 \$2 \$1 \$2 \$1 \$2 \$1 \$2 \$1 \$2 \$1 \$2 \$1
\$2 \$1 \$2 \$1 \$2 \$1 \$2 \$1 \$2 \$1 \$2 \$1 \$2;
#X obj 83 192 pack f f f;
#X msg 83 134 0.013;
#X obj 140 136 f \$0;
#X obj 140 101 loadbang;
#X connect 0 0 4 0;
#X connect 1 0 3 1;
#X connect 3 0 2 0;
#X connect 4 0 3 0;
#X connect 4 0 1 0;
#X connect 5 0 3 2;
#X connect 6 0 5 0;
#X restore 63 239 pd Band-limited Impulse;
#N canvas 719 34 340 840 Sine 0;
#X obj 84 99 inlet;
#X msg 84 165 \; w_\$1 sinesum 1024 1;
#X obj 84 132 f \$0;
#X connect 0 0 2 0;
#X connect 2 0 1 0;
#X restore 48 263 pd Sine;
#X obj 48 71 route 0 1 2 3 4 5;
#N canvas 719 34 340 840 soundfile 0;
#X obj 62 263 soundfiler;
#X obj 62 213 pack s s;
#X obj 62 75 openpanel;
#X obj 82 405 print;
#X msg 62 53 symbol Sounds;
#X msg 62 238 read -resize \$1 \$2;
#X msg 89 120 Loaded sound: \$1;
#X msg 82 382 (\$1 samples);
#X obj 62 97 t s s;
#X msg 101 337 \; w_\$1 normalize 0.99;
#X msg 107 190 symbol w_\$0;
#X obj 107 169 loadbang;
#X obj 101 315 f \$0;
#X obj 89 143 print;
#X obj 62 20 inlet;
#X obj 62 435 expr (size("w_\$0") - 2);
#X obj 62 460 s w_size_\$0;
#X obj 62 290 t b f b;
#X connect 0 0 17 0;
#X connect 1 0 5 0;
#X connect 2 0 8 0;
#X connect 4 0 2 0;
#X connect 5 0 0 0;
#X connect 6 0 13 0;
#X connect 7 0 3 0;
#X connect 8 0 1 0;
#X connect 8 1 6 0;
#X connect 10 0 1 1;
#X connect 11 0 10 0;
#X connect 12 0 9 0;
#X connect 14 0 4 0;
#X connect 15 0 16 0;
#X connect 17 0 15 0;
#X connect 17 1 7 0;
#X connect 17 2 12 0;
#X restore 130 106 pd soundfile;
#X obj 21 22 r \$0-waveform;
#X obj 21 47 t b f;
#X obj 21 327 expr (size("w_\$0") - 2);
#X obj 21 353 s w_size_\$0;
#X obj 118 23 loadbang;
#X obj 118 45 f 0;
#X connect 5 0 4 0;
#X connect 5 1 3 0;
#X connect 5 2 2 0;
#X connect 5 3 1 0;
#X connect 5 4 0 0;
#X connect 5 5 6 0;
#X connect 7 0 8 0;
#X connect 8 0 9 0;
#X connect 8 1 5 0;
#X connect 9 0 10 0;
#X connect 11 0 12 0;
#X connect 12 0 8 0;
#X restore 74 379 pd waveform;
#X obj 370 213 loadbang;
#X text 97 169 1) Sine;
#X text 97 187 2) Impulse;
#X text 97 205 3) Saw;
#X text 97 223 4) Triangle;
#X text 97 241 5) Noise;
#X text 242 188 2) Flat-top;
#X text 242 206 3) Triangle;
#X text 242 224 4) Expodec;
#X text 242 242 5) None;
#X obj 212 66 s phase-\$0;
#X obj 212 38 inlet phase;
#X obj 415 35 inlet masking;
#N canvas 956 34 452 817 masking 0;
#X obj 287 56 inlet;
#X obj 150 280 f;
#X obj 197 280 + 1;
#X obj 230 381 sel 1;
#X msg 231 247 0;
#X obj 150 304 t f f;
#X obj 150 350 >=;
#X obj 371 217 list length;
#X obj 369 322 - 1;
#X obj 371 266 t b f;
#X obj 28 462 line~;
#X obj 28 485 outlet~;
#X obj 287 151 t l l;
#X msg 28 439 \$1 1;
#X obj 182 497 array define \$0-mask-sequence;
#X obj 187 215 array set \$0-mask-sequence;
#X obj 371 296 array size \$0-mask-sequence;
#X obj 371 241 select 0;
#X floatatom 100 351 5 0 0 0 - - -, f 5;
#X obj 33 383 array get \$0-mask-sequence 0 1;
#X obj 28 416 clip 0 1;
#X msg 305 119 1;
#X obj 305 94 loadbang;
#X obj 150 160 r phase-wrap_\$0;
#X connect 0 0 12 0;
#X connect 1 0 2 0;
#X connect 1 0 5 0;
#X connect 1 0 18 0;
#X connect 1 0 19 0;
#X connect 2 0 1 1;
#X connect 3 0 4 0;
#X connect 4 0 1 1;
#X connect 5 0 6 0;
#X connect 5 1 2 0;
#X connect 6 0 3 0;
#X connect 7 0 17 0;
#X connect 8 0 6 1;
#X connect 9 0 16 0;
#X connect 9 1 16 0;
#X connect 10 0 11 0;
#X connect 12 0 15 0;
#X connect 12 1 7 0;
#X connect 13 0 10 0;
#X connect 16 0 8 0;
#X connect 17 1 9 0;
#X connect 19 0 20 0;
#X connect 20 0 13 0;
#X connect 21 0 12 0;
#X connect 22 0 21 0;
#X connect 23 0 1 0;
#X restore 415 120 pd masking;
#X obj 328 591 table m_\$0;
#X text 328 569 Masking Envelope;
#X text 289 112 Mask;
#X floatatom 223 270 5 0 100 1 Slope - #0-slope-factor, f 5;
#X text 242 170 1) Gauss;
#X text 225 112 Sync;
#X msg 367 245 0;
#X obj 76 168 vradio 18 0 0 6 \$0-waveform empty Waveform 0 -8 0 10
#fcfcfc #000000 #000000 0;
#X obj 222 169 vradio 18 0 0 5 \$0-envelope empty Envelope 0 -8 0 10
#fcfcfc #000000 #000000 0;
#X obj 143 38 inlet d;
#X text 97 259 6) Import;
#X obj 74 38 inlet p;
#X obj 415 145 s~ mask_\$0;
#N canvas 648 33 618 753 pulsarViewCalculation 0;
#X obj 629 100 f;
#X obj 583 106 f;
#X obj 602 72 t b f;
#X obj 306 357 f;
#X obj 337 357 + 1;
#X obj 305 284 t a b;
#X msg 349 314 0;
#X obj 305 384 t f f;
#X obj 29 579 tabread w_\$0;
#X obj 224 580 tabread v_\$0;
#X obj 256 656 tabwrite PulsarView_\$0;
#X obj 127 501 r w_size_\$0;
#X obj 208 615 *;
#X obj 232 403 t f f;
#X obj 127 523 f;
#X obj 588 237 t b f;
#X obj 325 174 r \$0-envelope;
#X obj 236 174 r \$0-waveform;
#X obj 411 174 r \$0-slope-factor;
#X obj 589 209 f;
#X obj 563 180 del 10;
#X obj 306 214 del 10;
#X obj 584 39 r d-\$0;
#X obj 643 42 r p-\$0;
#X obj 35 130 loadbang;
#X msg 35 159 \; PulsarView_\$0 resize 8192;
#X msg 305 262 8192;
#X obj 29 551 expr ($f1 / (8194 / $f2)) * $f3;
#X obj 224 550 expr ($f1 / 8) * $f2;
#N canvas 0 0 450 300 nbuntil 0;
#X obj 148 116 t b b b;
#X obj 103 230 del;
#X obj 109 37 moses 1;
#X obj 167 157 outlet;
#X obj 109 4 t a a;
#X obj 109 -125 inlet;
#X msg 109 58 b;
#X obj 109 79 outlet;
#X obj 103 207 * 1.2;
#X obj 103 183 realtime;
#X obj 109 -17 +;
#X msg 38 121 -1;
#X text 145 210 (add 20% spare time);
#X text 154 79 <--- bang when done;
#X obj 234 -127 inlet;
#X msg 234 -88 0;
#X text 290 -126 stop;
#X obj 109 -103 route bang float;
#X msg 109 -71 1e+08;
#X text 251 267 2012 \, Roman Haefeli;
#X connect 0 0 9 1;
#X connect 0 1 3 0;
#X connect 0 2 9 0;
#X connect 1 0 11 0;
#X connect 2 0 6 0;
#X connect 2 1 0 0;
#X connect 4 0 2 0;
#X connect 4 1 10 1;
#X connect 5 0 17 0;
#X connect 6 0 7 0;
#X connect 8 0 1 0;
#X connect 9 0 8 0;
#X connect 10 0 4 0;
#X connect 11 0 10 0;
#X connect 14 0 15 0;
#X connect 15 0 10 1;
#X connect 17 0 18 0;
#X connect 17 1 10 0;
#X connect 18 0 10 0;
#X restore 270 314 pd nbuntil;
#X obj 603 152 / 1;
#X connect 0 0 30 1;
#X connect 1 0 30 0;
#X connect 2 0 1 0;
#X connect 2 1 0 0;
#X connect 3 0 4 0;
#X connect 3 0 7 0;
#X connect 4 0 3 1;
#X connect 5 0 29 0;
#X connect 5 1 6 0;
#X connect 6 0 3 1;
#X connect 7 0 13 0;
#X connect 7 1 10 1;
#X connect 8 0 12 0;
#X connect 9 0 12 1;
#X connect 11 0 14 0;
#X connect 12 0 10 0;
#X connect 13 0 27 0;
#X connect 13 1 28 0;
#X connect 14 0 27 1;
#X connect 15 0 26 0;
#X connect 15 1 27 2;
#X connect 15 1 28 1;
#X connect 16 0 21 0;
#X connect 17 0 21 0;
#X connect 18 0 21 0;
#X connect 19 0 15 0;
#X connect 20 0 19 0;
#X connect 21 0 26 0;
#X connect 22 0 1 0;
#X connect 23 0 0 1;
#X connect 23 0 2 0;
#X connect 24 0 25 0;
#X connect 26 0 5 0;
#X connect 27 0 8 0;
#X connect 28 0 9 0;
#X connect 29 1 3 0;
#X connect 30 0 19 1;
#X connect 30 0 20 0;
#X restore 74 510 pd pulsarViewCalculation;
#X text 74 355 Subpatch for changing waveform;
#X text 74 424 Subpatch for changing envelope;
#X text 328 423 Pulsaret Envelope;
#X text 328 356 Pulsaret Waveform;
#X text 74 489 Subpatch for calculating PulsarView;
#X text 489 119 Subpatch for handling masking;
#N canvas 967 32 300 732 playback 0;
#X obj 133 115 phasor~;
#X obj 116 202 *~;
#X obj 94 348 *~;
#X obj 139 285 +~ 1;
#X obj 139 264 *~ 1025;
#X obj 34 307 tabread4~ w_\$0;
#X obj 139 305 tabread4~ v_\$0;
#X obj 48 34 r d-\$0;
#X obj 134 34 r p-\$0;
#X obj 68 128 /;
#X obj 93 95 f;
#X obj 47 101 f;
#X obj 66 67 t b f;
#X obj 180 34 r phase-\$0;
#X msg 182 55 0;
#X obj 93 383 *~, f 2;
#X obj 171 144 threshold~ 0.9 0 0.1 0;
#X obj 33 263 *~ 1025;
#X floatatom 85 264 7 0 0 0 - - -, f 7;
#X obj 34 286 +~ 1;
#X obj 170 166 s phase-wrap_\$0;
#X obj 72 241 r w_size_\$0;
#X obj 126 348 r~ mask_\$0;
#X obj 72 434 outlet~;
#X obj 65 156 sig~;
#X obj 71 179 lop~ 5;
#X connect 0 0 1 1;
#X connect 0 0 16 0;
#X connect 1 0 4 0;
#X connect 1 0 17 0;
#X connect 2 0 15 0;
#X connect 3 0 6 0;
#X connect 4 0 3 0;
#X connect 5 0 2 0;
#X connect 6 0 2 1;
#X connect 7 0 11 0;
#X connect 8 0 0 0;
#X connect 8 0 10 1;
#X connect 8 0 12 0;
#X connect 9 0 24 0;
#X connect 10 0 9 1;
#X connect 11 0 9 0;
#X connect 12 0 11 0;
#X connect 12 1 10 0;
#X connect 13 0 14 0;
#X connect 14 0 0 1;
#X connect 15 0 23 0;
#X connect 16 0 20 0;
#X connect 17 0 19 0;
#X connect 19 0 5 0;
#X connect 21 0 18 0;
#X connect 21 0 17 1;
#X connect 22 0 15 1;
#X connect 24 0 25 0;
#X connect 25 0 1 0;
#X restore 73 569 pd playback;
#X obj 437 278 s pd-w_\$0;
#X obj 328 513 table PulsarView_\$0;
#X obj 525 276 s pd-v_\$0;
#X obj 606 274 s pd-PulsarView_\$0;
#X obj 437 234 r waveShow_\$0;
#X obj 525 234 r envShow_\$0;
#X obj 606 234 r pulsarShow_\$0;
#X text 328 492 Pulsar Viewer;
#X text 438 211 logic for showing/hiding tables;
#X msg 437 256 vis 1;
#X msg 525 255 vis 1;
#X msg 606 254 vis 1;
#X obj 78 298 bng 15 250 50 0 waveShow_\$0 empty View\ Pulsaret 0 20
0 10 #fcfcfc #000000 #000000;
#X obj 164 298 bng 15 250 50 0 envShow_\$0 empty View\ Envelope 0 20
0 10 #fcfcfc #000000 #000000;
#X obj 250 298 bng 15 250 50 0 pulsarShow_\$0 empty View\ Pulsar 0
20 0 10 #fcfcfc #000000 #000000;
#X obj 133 70 clip 0 10000;
#X obj 49 72 clip 0 10000;
#X connect 8 0 28 0;
#X connect 19 0 18 0;
#X connect 20 0 21 0;
#X connect 21 0 34 0;
#X connect 28 0 25 0;
#X connect 31 0 58 0;
#X connect 33 0 59 0;
#X connect 42 0 2 0;
#X connect 47 0 52 0;
#X connect 48 0 53 0;
#X connect 49 0 54 0;
#X connect 52 0 43 0;
#X connect 53 0 45 0;
#X connect 54 0 46 0;
#X connect 58 0 1 0;
#X connect 59 0 0 0;
#X coords 0 -1 1 1 253 228 2 71 108;
